PathFileType	4	(X/Y/Z)	D:\telocate\uwb01-Unnamed.trc
DataRate	CameraRate	NumFrames	NumMarkers	Units	OrigDataRate	OrigDataStartFrame	OrigNumFrames
100.00	100.00	      86	0	mm	100.00	1884	      7534
Frame#	Time	
		

1884	18.830	3451.57007	1267.87476	1147.70642	
1885	18.840	3447.51099	1270.37524	1146.46191	
1886	18.850	3445.89087	1272.31335	1146.38147	
1887	18.860	3444.02417	1274.82776	1147.05859	
1888	18.870	3442.04126	1276.75061	1146.88391	
1889	18.880	3438.73120	1279.41846	1146.83801	
1890	18.890	3437.16455	1281.47827	1146.92212	
1891	18.900	3436.07910	1284.92432	1146.54834	
1892	18.910	3432.71777	1286.98828	1146.31665	
1893	18.920	3431.01514	1289.96765	1146.23010	
1894	18.930	3428.72437	1292.13391	1146.24097	
1895	18.940	3425.52173	1295.01355	1146.14221	
1896	18.950	3422.75879	1297.11218	1146.27271	
1897	18.960	3420.07324	1300.15967	1146.64453	
1898	18.970	3417.52588	1302.68860	1146.62354	
1899	18.980	3415.09204	1305.31836	1146.87146	
1900	18.990	3412.79077	1307.48816	1146.22302	
1901	19.000	3410.13135	1310.36230	1146.16406	
1902	19.010	3408.20215	1312.51282	1146.27332	
1903	19.020	3405.46069	1314.75232	1145.91406	
1904	19.030	3403.68286	1317.63440	1146.81958	
1905	19.040	3400.89648	1320.04810	1146.86365	
1906	19.050	3397.80542	1322.80212	1146.44812	
1907	19.060	3396.09839	1325.74121	1147.12048	
1908	19.070	3395.03906	1327.26880	1146.91309	
1909	19.080	3392.34814	1329.41528	1146.07422	
1910	19.090	3390.42627	1332.14380	1147.10474	
1911	19.100	3387.63989	1334.29541	1146.67834	
1912	19.110	3385.49927	1337.11377	1147.53699	
1913	19.120	3382.64795	1339.75793	1147.03491	
1914	19.130	3381.05835	1342.22729	1147.26636	
1915	19.140	3379.43140	1344.67053	1147.42529	
1916	19.150	3376.30859	1347.73145	1147.58484	
1917	19.160	3374.39771	1350.26282	1147.86926	
1918	19.170	3371.61206	1352.59302	1147.27246	
1919	19.180	3368.42310	1356.11938	1146.99487	
1920	19.190	3366.49658	1358.48669	1147.34961	
1921	19.200	3364.12524	1361.52808	1147.90015	
1922	19.210	3361.56665	1364.44031	1147.79443	
1923	19.220	3359.46753	1367.83398	1147.87842	
1924	19.230	3357.75757	1370.70630	1148.25464	
1925	19.240	3354.93726	1373.51587	1148.30725	
1926	19.250	3352.73169	1376.44763	1148.81409	
1927	19.260	3349.92139	1379.65332	1148.18604	
1928	19.270	3346.79517	1383.36401	1148.04651	
1929	19.280	3343.71313	1386.63586	1147.78601	
1930	19.290	3341.14551	1390.49023	1148.16235	
1931	19.300	3338.51636	1394.38428	1148.97192	
1932	19.310	3334.33545	1398.91272	1148.27429	
1933	19.320	3331.80322	1403.78918	1148.31067	
1934	19.330	3328.03687	1408.09900	1147.40015	
1935	19.340	3324.89136	1412.08875	1147.19543	
1936	19.350	3321.31958	1416.89160	1147.08704	
1937	19.360	3318.37134	1421.09961	1146.30908	
1938	19.370	3315.31152	1425.52197	1146.54028	
1939	19.380	3311.72290	1430.15454	1146.39246	
1940	19.390	3308.68286	1434.69690	1146.21045	
1941	19.400	3305.06909	1438.69617	1146.17529	
1942	19.410	3302.14795	1442.83655	1146.09692	
1943	19.420	3298.61182	1447.05005	1146.54431	
1944	19.430	3295.58936	1451.19006	1145.82227	
1945	19.440	3292.59521	1455.75354	1145.65491	
1946	19.450	3289.67407	1459.69067	1145.47949	
1947	19.460	3286.25293	1463.90833	1145.27966	
1948	19.470	3283.59644	1468.39575	1145.64404	
1949	19.480	3280.14771	1472.24048	1144.98755	
1950	19.490	3276.80713	1476.72058	1143.62964	
1951	19.500	3274.12231	1481.24951	1144.61096	
1952	19.510	3272.11035	1485.13977	1144.36523	
1953	19.520	3269.59131	1489.03833	1144.20825	
1954	19.530	3266.22363	1493.80945	1144.34302	
1955	19.540	3262.74048	1497.54321	1144.00024	
1956	19.550	3259.34180	1502.33899	1143.32263	
1957	19.560	3257.61694	1505.94836	1143.11658	
1958	19.570	3254.82788	1509.59412	1142.92236	
1959	19.580	3253.49023	1513.02637	1142.75854	
1960	19.590	3251.10547	1516.54749	1143.05676	
1961	19.600	3248.53955	1519.98315	1142.55103	
1962	19.610	3246.24048	1523.45972	1142.74792	
1963	19.620	3243.68530	1527.29089	1143.10852	
1964	19.630	3241.39209	1529.91101	1142.44727	
1965	19.640	3239.52148	1533.48669	1143.25562	
1966	19.650	3237.31445	1536.28210	1142.87537	
1967	19.660	3236.15625	1538.96790	1143.89331	
1968	19.670	3234.03271	1540.93188	1143.51758	
1969	19.680	3232.27051	1543.56140	1143.94104	
